<svg width="55" height="48" viewBox="0 0 55 48" fill="none" xmlns="http://www.w3.org/2000/svg">
<g clip-path="url(#clip0_14_4)">
<path d="M27.1339 47.8503L27.1008 15.9002L11.4954 18.924L27.1339 47.8503Z" fill="url(#paint0_linear_14_4)" stroke="white" stroke-width="0.25" stroke-miterlimit="10"/>
<path d="M27.0676 47.8503L27.1007 15.9002L42.7061 18.924L27.0676 47.8503Z" fill="url(#paint1_linear_14_4)" stroke="white" stroke-width="0.25" stroke-miterlimit="10"/>
<path d="M46.9206 21.355C41.3763 19.4958 34.3013 18.9659 27.4975 19.0527C20.6937 18.9659 13.6187 19.4958 8.07441 21.355C-7.4225 26.5582 4.1482 3.90095 4.1482 3.90095C4.31694 3.16747 5.17872 2.2783 6.27251 1.37716C7.36329 0.479012 8.74033 0 10.1535 0H44.8415C46.2547 0 47.6317 0.482006 48.7225 1.37716C49.8163 2.2783 50.6751 3.16447 50.8468 3.90095C50.8468 3.90095 62.4175 26.5582 46.9206 21.355Z" fill="#9AC437"/>
<path d="M20.6314 18.6066C24.8234 18.6066 28.2217 15.2302 28.2217 11.0652C28.2217 6.90016 24.8234 3.52374 20.6314 3.52374C16.4394 3.52374 13.0411 6.90016 13.0411 11.0652C13.0411 15.2302 16.4394 18.6066 20.6314 18.6066Z" fill="#FCFDFB"/>
<path d="M33.5701 17.0978C36.9233 17.0978 39.6417 14.3969 39.6417 11.0652C39.6417 7.73352 36.9233 5.03265 33.5701 5.03265C30.2168 5.03265 27.4985 7.73352 27.4985 11.0652C27.4985 14.3969 30.2168 17.0978 33.5701 17.0978Z" fill="#9AC437"/>
<path d="M33.5701 18.6066C37.7621 18.6066 41.1604 15.2302 41.1604 11.0652C41.1604 6.90016 37.7621 3.52374 33.5701 3.52374C29.3781 3.52374 25.9798 6.90016 25.9798 11.0652C25.9798 15.2302 29.3781 18.6066 33.5701 18.6066Z" fill="#FCFDFB"/>
<path d="M33.5701 17.0978C36.9233 17.0978 39.6417 14.3969 39.6417 11.0652C39.6417 7.73352 36.9233 5.03265 33.5701 5.03265C30.2168 5.03265 27.4985 7.73352 27.4985 11.0652C27.4985 14.3969 30.2168 17.0978 33.5701 17.0978Z" fill="#9AC437"/>
<path d="M33.5701 15.8912C36.2527 15.8912 38.4274 13.7305 38.4274 11.0652C38.4274 8.39983 36.2527 6.23914 33.5701 6.23914C30.8875 6.23914 28.7128 8.39983 28.7128 11.0652C28.7128 13.7305 30.8875 15.8912 33.5701 15.8912Z" fill="#020304"/>
<path d="M20.6314 17.0978C23.9846 17.0978 26.703 14.3969 26.703 11.0652C26.703 7.73352 23.9846 5.03265 20.6314 5.03265C17.2781 5.03265 14.5598 7.73352 14.5598 11.0652C14.5598 14.3969 17.2781 17.0978 20.6314 17.0978Z" fill="#9AC437"/>
<path d="M20.6314 15.8912C23.314 15.8912 25.4887 13.7305 25.4887 11.0652C25.4887 8.39983 23.314 6.23914 20.6314 6.23914C17.9488 6.23914 15.7741 8.39983 15.7741 11.0652C15.7741 13.7305 17.9488 15.8912 20.6314 15.8912Z" fill="#060707"/>
</g>
<defs>
<linearGradient id="paint0_linear_14_4" x1="10.3753" y1="31.8742" x2="26.0147" y2="31.8742" gradientUnits="userSpaceOnUse">
<stop stop-color="#706F6F"/>
<stop offset="0.1664" stop-color="#747473"/>
<stop offset="0.346" stop-color="#80807F"/>
<stop offset="0.5319" stop-color="#939392"/>
<stop offset="0.722" stop-color="#ACACAC"/>
<stop offset="0.9136" stop-color="#CBCBCA"/>
<stop offset="1" stop-color="#DADADA"/>
</linearGradient>
<linearGradient id="paint1_linear_14_4" x1="27.0664" y1="31.8742" x2="42.7057" y2="31.8742" gradientUnits="userSpaceOnUse">
<stop stop-color="#DADADA"/>
<stop offset="1" stop-color="#9D9D9C"/>
</linearGradient>
<clipPath id="clip0_14_4">
<rect width="55" height="48" fill="white"/>
</clipPath>
</defs>
</svg>
